<svg version="1.1" xmlns="http://www.w3.org/2000/svg" xmlns:xlink="http://www.w3.org/1999/xlink" width="1103" height="1264"><desc>title%20Sequence%20Diagram%0A%0Aparticipant%20Company%20A%0Aparticipant%20Company%20B%0Aparticipant%20Company%20C%0Aparticipant%20Authority%0Aparticipant%20Blockchain%0Adatabase%20LCA%20Database%0A%0ACompany%20A-%3E%20Authority%20%3A%20Formula%20%2F%20Recipe%20of%20Product%20%2F%20Process%20(ZKP%20Code)%0Anote%20over%20Authority%3AAudit%20and%20initial%20Setup%20%0AAuthority%20-%3EBlockchain%3A%20Deploy%20Verifier%20Contract%0AAuthority%20-%3ECompany%20A%20%3A%20%20Proving%20Key%20%26%20Contract%20Infos%0ACompany%20A-%3ELCA%20Database%3ARequest%20Emission%20Factors%20for%20Calculation%0A%0ACompany%20A%3C--LCA%20Database%3AEmission%20Factors%20for%20Calculation%0Anote%20over%20Company%20A%20%3AExecute%20Calculation%20and%20ZKP%20Code%0ACompany%20A%20-%3ECompany%20B%3A%20Send%20Proof%20and%20Result%0ACompany%20B%20-%3EBlockchain%3A%20Verify%20Result%20with%20Proof%0ABlockchain%20--%3ECompany%20B%3A%20Verification%0A%0A%0A%0ACompany%20B-%3E%20Authority%20%3A%20Formula%20%2F%20Recipe%20of%20Product%20%2F%20Process%20(ZKP%20Code)%0Anote%20over%20Authority%3AAudit%20and%20initial%20Setup%20%0AAuthority%20-%3EBlockchain%3A%20Deploy%20Verifier%20Contract%0AAuthority%20-%3ECompany%20B%20%3A%20%20Proving%20Key%20%26%20Contract%20Infos%0ACompany%20B-%3ELCA%20Database%3ARequest%20Emission%20Factors%20for%20Calculation%0ACompany%20B%3C--LCA%20Database%3AEmission%20Factors%20for%20Calculation%0Anote%20over%20Company%20B%20%3AExecute%20Calculation%20and%20ZKP%20Code%0ACompany%20B%20-%3ECompany%20C%3A%20Send%20Proof%20and%20Result%0ACompany%20C%20-%3EBlockchain%3A%20Verify%20Result%20with%20Proof%0ABlockchain%20--%3ECompany%20C%3A%20Verification</desc><defs/><g><g/><g/><g/><g/><g/><g/><g/><g/><g/><g/><g/><g/><g/><g/><g/><g/><g/><g/><g/><g/><g><rect fill="white" stroke="none" x="0" y="0" width="1103" height="1264"/></g><g><text fill="black" stroke="none" font-family="sans-serif" font-size="16.5pt" font-style="normal" font-weight="normal" text-decoration="normal" x="457.4336889509128" y="26.3876361" text-anchor="start" dominant-baseline="alphabetic" xml:space="preserve">Sequence Diagram</text></g><g/><g><path fill="none" stroke="black" paint-order="fill stroke markers" d=" M 148.32766700189453 138.798965886 L 148.32766700189453 1264.6714394859998" stroke-miterlimit="10" stroke-width="1.4659797833333332" stroke-dasharray="13.532121076923076,5.863919133333333"/><path fill="none" stroke="black" paint-order="fill stroke markers" d=" M 342.74791594258465 138.798965886 L 342.74791594258465 1264.6714394859998" stroke-miterlimit="10" stroke-width="1.4659797833333332" stroke-dasharray="13.532121076923076,5.863919133333333"/><path fill="none" stroke="black" paint-order="fill stroke markers" d=" M 537.1681648832748 138.798965886 L 537.1681648832748 1264.6714394859998" stroke-miterlimit="10" stroke-width="1.4659797833333332" stroke-dasharray="13.532121076923076,5.863919133333333"/><path fill="none" stroke="black" paint-order="fill stroke markers" d=" M 725.20144761778 138.798965886 L 725.20144761778 1264.6714394859998" stroke-miterlimit="10" stroke-width="1.4659797833333332" stroke-dasharray="13.532121076923076,5.863919133333333"/><path fill="none" stroke="black" paint-order="fill stroke markers" d=" M 926.9301987557358 138.798965886 L 926.9301987557358 1264.6714394859998" stroke-miterlimit="10" stroke-width="1.4659797833333332" stroke-dasharray="13.532121076923076,5.863919133333333"/><path fill="none" stroke="black" paint-order="fill stroke markers" d=" M 1046.7299540968452 138.798965886 L 1046.7299540968452 1264.6714394859998" stroke-miterlimit="10" stroke-width="1.4659797833333332" stroke-dasharray="13.532121076923076,5.863919133333333"/></g><g><path fill="none" stroke="none"/><g><path fill="white" stroke="black" paint-order="fill stroke markers" d=" M 90.94426928051172 91.301220906 L 205.71106472327733 91.301220906 L 205.71106472327733 138.798965886 L 90.94426928051172 138.798965886 L 90.94426928051172 91.301220906 Z" stroke-miterlimit="10" stroke-width="2.814681184" stroke-dasharray=""/></g><g><g/><text fill="black" stroke="none" font-family="sans-serif" font-size="11pt" font-style="normal" font-weight="normal" text-decoration="normal" x="110.03132605951171" y="121.207208486" text-anchor="start" dominant-baseline="alphabetic" xml:space="preserve">Company A</text></g><path fill="none" stroke="none"/><g><path fill="white" stroke="black" paint-order="fill stroke markers" d=" M 285.3645182212018 91.301220906 L 400.13131366396743 91.301220906 L 400.13131366396743 138.798965886 L 285.3645182212018 138.798965886 L 285.3645182212018 91.301220906 Z" stroke-miterlimit="10" stroke-width="2.814681184" stroke-dasharray=""/></g><g><g/><text fill="black" stroke="none" font-family="sans-serif" font-size="11pt" font-style="normal" font-weight="normal" text-decoration="normal" x="304.45157500020184" y="121.207208486" text-anchor="start" dominant-baseline="alphabetic" xml:space="preserve">Company B</text></g><path fill="none" stroke="none"/><g><path fill="white" stroke="black" paint-order="fill stroke markers" d=" M 479.3803253283959 91.301220906 L 594.9560044381537 91.301220906 L 594.9560044381537 138.798965886 L 479.3803253283959 138.798965886 L 479.3803253283959 91.301220906 Z" stroke-miterlimit="10" stroke-width="2.814681184" stroke-dasharray=""/></g><g><g/><text fill="black" stroke="none" font-family="sans-serif" font-size="11pt" font-style="normal" font-weight="normal" text-decoration="normal" x="498.4673821073959" y="121.207208486" text-anchor="start" dominant-baseline="alphabetic" xml:space="preserve">Company C</text></g><path fill="none" stroke="none"/><g><path fill="white" stroke="black" paint-order="fill stroke markers" d=" M 677.188136566319 91.301220906 L 773.214758669241 91.301220906 L 773.214758669241 138.798965886 L 677.188136566319 138.798965886 L 677.188136566319 91.301220906 Z" stroke-miterlimit="10" stroke-width="2.814681184" stroke-dasharray=""/></g><g><g/><text fill="black" stroke="none" font-family="sans-serif" font-size="11pt" font-style="normal" font-weight="normal" text-decoration="normal" x="696.275193345319" y="121.207208486" text-anchor="start" dominant-baseline="alphabetic" xml:space="preserve">Authority</text></g><path fill="none" stroke="none"/><g><path fill="white" stroke="black" paint-order="fill stroke markers" d=" M 872.3957771696068 91.301220906 L 981.4646203418647 91.301220906 L 981.4646203418647 138.798965886 L 872.3957771696068 138.798965886 L 872.3957771696068 91.301220906 Z" stroke-miterlimit="10" stroke-width="2.814681184" stroke-dasharray=""/></g><g><g/><text fill="black" stroke="none" font-family="sans-serif" font-size="11pt" font-style="normal" font-weight="normal" text-decoration="normal" x="891.4828339486069" y="121.207208486" text-anchor="start" dominant-baseline="alphabetic" xml:space="preserve">Blockchain</text></g><g><path fill="white" stroke="black" paint-order="fill stroke markers" d=" M 1021.0459882928452 104.31912138199999 L 1021.0459882928452 67.37643084199999 L 1072.4139199008453 67.37643084199999 L 1072.4139199008453 104.31912138199999" stroke-miterlimit="10" stroke-width="2.990598758" stroke-dasharray=""/><path fill="white" stroke="black" paint-order="fill stroke markers" d=" M 1072.4139199008453 66.0922325518 L 1072.4126357132566 66.20833621555636 L 1072.4087832789085 66.3244282690431 L 1072.4023629830413 66.4404971031516 L 1072.3933754676789 66.5565311110952 L 1072.3818216315656 66.67251868956978 L 1072.3677026300752 66.78844823991415 L 1072.3510198750964 66.9043081692699 L 1072.3317750348906 67.0200868917406 L 1072.3099700339255 67.13577282955055 L 1072.2856070526836 67.25135441420231 L 1072.2586885274422 67.36682008763378 L 1072.2292171500317 67.48215830337381 L 1072.1971958675654 67.59735752769696 L 1072.1626278821443 67.71240624077679 L 1072.1255166505387 67.82729293783784 L 1072.0858658838406 67.94200613030618 L 1072.0436795470937 68.05653434695814 L 1071.9989618588963 68.1708661350675 L 1071.9517172909802 68.28499006155073 L 1071.901950567763 68.39889471411026 L 1071.849666665875 68.51256870237577 L 1071.7948708136632 68.62600065904317 L 1071.7375684906672 68.73917924101131 L 1071.6777654270713 68.85209313051632 L 1071.6154676031322 68.96473103626333 L 1071.5506812485803 69.07708169455563 L 1071.483412841997 69.18913387042103 L 1071.4136691101673 69.3008763587353 L 1071.3414570274058 69.41229798534273 L 1071.2667838148607 69.52338760817354 L 1071.1896569397911 69.63413411835798 L 1071.1100841148202 69.74452644133734 L 1071.0280732971644 69.85455353797133 L 1070.9436326878367 69.96420440564195 L 1070.856770730828 70.07346807935382 L 1070.7674961122614 70.18233363283062 L 1070.6758177595248 70.29079017960771 L 1070.5817448403764 70.39882687412083 L 1070.4852867620302 70.50643291279052 L 1070.3864531702136 70.6135975351026 L 1070.2852539482033 70.72031002468414 L 1070.1816992158372 70.82655971037511 L 1070.0757993285022 70.93233596729549 L 1069.9675648760988 71.03762821790771 L 1069.8570066819823 71.14242593307448 L 1069.7441358018796 71.2467186331116 L 1069.6289635227847 71.35049588883598 L 1069.51150136183 71.45374732260854 L 1069.391761065133 71.55646260937192 L 1069.2697546066242 71.65863147768304 L 1069.1454941868474 71.76024371074024 L 1069.0189922317413 71.86128914740488 L 1068.8902613913956 71.96175768321748 L 1068.7593145387875 72.0616392714082 L 1068.626164768493 72.16092392390144 L 1068.490825395378 72.25960171231469 L 1068.3533099532672 72.35766276895136 L 1068.21363219359 72.45509728778748 L 1068.0718060840063 72.55189552545237 L 1067.9278458070087 72.64804780220294 L 1067.781765758505 72.74354450289161 L 1067.633580546378 72.83837607792793 L 1067.4833049890258 72.93253304423341 L 1067.3309541138788 73.02600598618986 L 1067.1765431558974 73.118785556581 L 1067.0200875560492 73.21086247752712 L 1066.861602959763 73.30222754141282 L 1066.7011052153673 73.39287161180788 L 1066.538610372502 73.48278562438078 L 1066.3741346805166 73.5719605878052 L 1066.2076945868428 73.66038758465909 L 1066.0393067353511 73.74805777231649 L 1065.868987964687 73.83496238383165 L 1065.6967553065851 73.92109272881588 L 1065.522625984168 74.00644019430642 L 1065.3466174102223 74.09099624562788 L 1065.1687471854593 74.17475242724555 L 1064.9890330967532 74.2577003636111 L 1064.8074931153628 74.33983176 L 1064.6241453951352 74.42113840334106 L 1064.4390082706893 74.50161216303769 L 1064.2521002555839 74.58124499178099 L 1064.063440040464 74.66002892635444 L 1063.8730464911946 74.73795608843025 L 1063.6809386469713 74.81501868535715 L 1063.487135718419 74.89120901093965 L 1063.2916570856687 74.9665194462087 L 1063.094522296421 75.0409424601835 L 1062.8957510639902 75.11447061062472 L 1062.6953632653344 75.18709654477856 L 1062.4933789390661 75.25881300011211 L 1062.2898182834497 75.32961280503964 L 1062.0847016543812 75.39948887963963 L 1061.8780495633525 75.46843423636287 L 1061.6698826754007 75.53644198073111 L 1061.4602218070406 75.60350531202661 L 1061.249087924185 75.66961752397214 L 1061.0365021400457 75.73477200540155 L 1060.8224857130242 75.79896224092104 L 1060.6070600445848 75.86218181156053 L 1060.3902466771149 75.92442439541566 L 1060.1720672917704 75.98568376827987 L 1059.9525437063082 76.04595380426694 L 1059.7316978729039 76.10522847642352 L 1059.5095518759567 76.16350185733178 L 1059.2861279298813 76.22076811970217 L 1059.061448376886 76.27702153695618 L 1058.8355356847387 76.33225648379899 L 1058.6084124445208 76.38646743678191 L 1058.3801013683667 76.43964897485485 L 1058.1506252871939 76.49179577990829 L 1057.9200071484192 76.54290263730519 L 1057.6882700136646 76.59296443640241 L 1057.45543705645 76.64197617106174 L 1057.2215315598773 76.68993294015058 L 1056.9865769143014 76.73682994803197 L 1056.7505966149909 76.7826625050442 L 1056.513614259779 76.82742602796976 L 1056.2756535467038 76.87111604049369 L 1056.0367382716383 76.91372817365111 L 1055.796892325911 76.95525816626423 L 1055.5561396939165 76.99570186536839 L 1055.3145044507175 77.03505522662739 L 1055.072010759637 77.0733143147379 L 1054.8286828698417 77.11047530382298 L 1054.5845451139182 77.1465344778147 L 1054.3396219054382 77.1814882308257 L 1054.093937736519 77.21533306750982 L 1053.8475171753723 77.24806560341159 L 1053.600384863849 77.2796825653047 L 1053.3525655149745 77.31018079151929 L 1053.104083910477 77.33955723225817 L 1052.8549648983098 77.36780894990176 L 1052.6052333901666 77.3949331193018 L 1052.35491435899 77.42092702806399 L 1052.104032836475 77.44578807681908 L 1051.852613910564 77.46951377948295 L 1051.600682722941 77.49210176350509 L 1051.348264466514 77.51354977010593 L 1051.0953843828986 77.53385565450264 L 1050.8420677598924 77.55301738612376 L 1050.5883399289467 77.57103304881205 L 1050.3342262626331 77.58790084101629 L 1050.0797521721065 77.6036190759713 L 1049.824943104564 77.61818618186668 L 1049.5698245406995 77.63160070200398 L 1049.3144219921576 77.64386129494237 L 1049.0587609989796 77.65496673463277 L 1048.8028671270522 77.66491591054046 L 1048.5467659655492 77.67370782775615 L 1048.2904831243732 77.68134160709545 L 1048.0340442315949 77.68781648518677 L 1047.7774749308899 77.6931318145477 L 1047.5208008789746 77.69728706364975 L 1047.2640477430398 77.70028181697145 L 1047.0072411981857 77.70211577504 L 1046.7504069248525 77.70278875446107 L 1046.4935706062533 77.70230068793732 L 1046.2367579258066 77.70065162427498 L 1045.9799945645657 77.69784172837903 L 1045.723306198653 77.69387128123674 L 1045.4667184966916 77.68874067988952 L 1045.2102571172372 77.68245043739319 L 1044.9539477062146 77.6750011827668 L 1044.697815894351 77.66639366092959 L 1044.4418872946142 77.65662873262656 L 1044.1861874996507 77.64570737434241 L 1043.9307420792272 77.63363067820387 L 1043.675576577673 77.6203998518705 L 1043.4207165113253 77.60601621841388 L 1043.1661873659784 77.59048121618541 L 1042.9120145943348 77.57379639867233 L 1042.6582236134598 77.5559634343425 L 1042.40483980224 77.53698410647749 L 1042.1518884988457 77.51686031299428 L 1041.899394998196 77.49559406625544 L 1041.6473845494306 77.47318749286792 L 1041.3958823533846 77.44964283347039 L 1041.144913560068 77.42496244250918 L 1040.8945032661507 77.3991487880028 L 1040.6446765124538 77.3722044512952 L 1040.395458281444 77.3441321267976 L 1040.1468734947373 77.31493462171906 L 1039.8989470106048 77.28461485578573 L 1039.6517036214884 77.25317586094897 L 1039.405168051521 77.22062078108203 L 1039.1593649540544 77.18695287166581 L 1038.914318909193 77.15217549946317 L 1038.6700544213375 77.11629214218235 L 1038.426595916733 77.07930638812917 L 1038.183967741027 77.04122193584823 L 1037.9421941568348 77.002042593753 L 1037.7012993413139 76.96177227974506 L 1037.4613073837443 76.92041502082225 L 1037.2222422831223 76.87797495267598 L 1036.9841279457587 76.83445631927773 L 1036.7469881828886 76.78986347245454 L 1036.510846708291 76.74420087145396 L 1036.2757271359162 76.69747308249802 L 1036.0416529775255 76.64968477832667 L 1035.80864764034 76.60084073773052 L 1035.5767344246992 76.55094584507293 L 1035.3459365217311 76.50000508980158 L 1035.116277011034 76.44802356594954 L 1034.8877788583675 76.39500647162588 L 1034.6604649133562 76.34095910849587 L 1034.4343579072056 76.28588688125075 L 1034.2094804504275 76.22979529706737 L 1033.9858550305803 76.1726899650574 L 1033.76350401002 76.11457659570647 L 1033.5424496236626 76.05546100030305 L 1033.3227139767632 75.99534909035746 L 1033.104319042703 75.9342468770106 L 1032.887286660794 75.87216047043285 L 1032.6716385340926 75.80909607921315 L 1032.4573962272325 75.74506000973807 L 1032.2445811642656 75.6800586655612 L 1032.0332146265207 75.61409854676278 L 1031.8233177504758 75.54718624929971 L 1031.614911525643 75.47932846434601 L 1031.408016792472 75.4105319776236 L 1031.2026542402627 75.34080366872384 L 1030.9988444051 75.2701505104195 L 1030.7966076677972 75.19857956796754 L 1030.5959642518596 75.12609799840256 L 1030.3969342214616 75.05271304982111 L 1030.19953747944 74.9784320606569 L 1030.0037937653053 74.90326245894695 L 1029.809722653265 74.82721176158879 L 1029.6173435502692 74.75028757358876 L 1029.4266756940674 74.67249758730159 L 1029.2377381512865 74.59384958166106 L 1029.0505498155235 74.51435142140221 L 1028.8651294054557 74.4340110562748 L 1028.6814954629697 74.3528365202484 L 1028.4996663513068 74.27083593070897 L 1028.3196602532266 74.18801748764713 L 1028.141495169189 74.10438947283818 L 1027.9651889155539 74.01996024901389 L 1027.7907591227995 73.9347382590263 L 1027.6182232337599 73.84873202500339 L 1027.4475985018803 73.76195014749688 L 1027.2789019894915 73.67440130462221 L 1027.1121505661044 73.58609425119072 L 1026.9473609067222 73.49703781783415 L 1026.7845494901737 73.40724091012163 L 1026.6237325974646 73.3167125076691 L 1026.4649263101503 73.22546166324135 L 1026.3081465087273 73.1334975018468 L 1026.153408871045 73.04082921982494 L 1026.0007288707382 72.94746608392677 L 1025.8501217756796 72.85341743038806 L 1025.7016026464535 72.75869266399579 L 1025.5551863348487 72.66330125714767 L 1025.4108874823746 72.56725274890488 L 1025.268720518796 72.4705567440382 L 1025.1286996606912 72.37322291206758 L 1024.9908389100287 72.27526098629505 L 1024.8551520527692 72.17668076283158 L 1024.721652657485 72.07749209961737 L 1024.5903540740048 71.97770491543608 L 1024.4612694320772 71.87732918892296 L 1024.3344116400588 71.77637495756703 L 1024.2097933836233 71.6748523167073 L 1024.0874271244923 71.57277141852325 L 1023.9673250991898 71.47014247101961 L 1023.8494993178183 71.36697573700563 L 1023.7339615628578 71.26328153306875 L 1023.6207233879873 71.15907022854292 L 1023.5097961169301 71.05435224447177 L 1023.4011908423208 70.94913805256644 L 1023.2949184245965 70.84343817415844 L 1023.1909894909102 70.73726317914753 L 1023.0894144340688 70.63062368494474 L 1022.9902034114933 70.5235303554106 L 1022.8933663442032 70.41599389978884 L 1022.7989129158246 70.3080250716354 L 1022.7068525716218 70.19963466774314 L 1022.6171945175522 70.0908335270621 L 1022.5299477193466 69.98163252961568 L 1022.4451209016123 69.87204259541265 L 1022.3627225469601 69.76207468335508 L 1022.2827608951569 69.65173979014256 L 1022.2052439423014 69.54104894917243 L 1022.1301794400241 69.43001322943658 L 1022.0575748947127 69.31864373441445 L 1021.9874375667614 69.20695160096271 L 1021.9197744698442 69.09494799820165 L 1021.8545923702148 68.98264412639821 L 1021.7918977860286 68.87005121584596 L 1021.7316969866919 68.75718052574217 L 1021.6739959922343 68.64404334306175 L 1021.6188005727073 68.53065098142872 L 1021.5661162476068 68.41701477998473 L 1021.5159482853215 68.30314610225523 L 1021.4683017026057 68.1890563350131 L 1021.423181264078 68.07475688714001 L 1021.3805914817448 67.96025918848548 L 1021.3405366145486 67.84557468872397 L 1021.3030206679429 67.73071485620987 L 1021.268047393491 67.61569117683074 L 1021.2356202884912 67.50051515285864 L 1021.205742595627 67.3851983018 L 1021.178417302643 67.26975215524384 L 1021.1536471420454 67.15418825770858 L 1021.1314345908298 67.0385181654877 L 1021.1117818702328 66.92275344549402 L 1021.0946909455101 66.80690567410306 L 1021.0801635257399 66.69098643599544 L 1021.0682010636519 66.57500732299836 L 1021.0588047554826 66.45897993292647 L 1021.0519755408549 66.34291586842208 L 1021.0477141026845 66.22682673579494 L 1021.0460208671117 66.11072414386156 L 1021.0468960034586 65.99461970278438 L 1021.0503394242126 65.87852502291076 L 1021.056350785034 65.76245171361194 L 1021.0649294847922 65.64641138212212 L 1021.076074665624 65.53041563237775 L 1021.0897852130208 65.41447606385715 L 1021.1060597559393 65.29860427042055 L 1021.1248966669388 65.18281183915073 L 1021.1462940623436 65.06711034919432 L 1021.1702498024323 64.95151137060391 L 1021.1967614916508 64.83602646318103 L 1021.2258264788521 64.72066717532017 L 1021.257441857562 64.60544504285399 L 1021.2916044662687 64.49037158789972 L 1021.3283108887399 64.37545831770696 L 1021.367557454364 64.26071672350696 L 1021.4093402385171 64.14615827936355 L 1021.4536550629555 64.03179444102564 L 1021.5004974962338 63.917636644781794 L 1021.5498628541477 63.80369630631649 L 1021.6017462002026 63.68998481956863 L 1021.656142346107 63.57651355559212 L 1021.7130458522917 63.46329386141881 L 1021.7724510284535 63.35033705892376 L 1021.8343519341244 63.237654443693096 L 1021.8987423792651 63.125257283894435 L 1021.965615924885 63.0131568191501 L 1022.0349658836853 62.90136425941313 L 1022.1067853207278 62.78989078384635 L 1022.1810670541287 62.67874753970443 L 1022.2578036557765 62.56794564121916 L 1022.336987452075 62.45749616848805 L 1022.4186105247106 62.34741016636633 L 1022.502664711444 62.23769864336248 L 1022.5891416069267 62.12837257053737 L 1022.678032563541 62.01944288040719 L 1022.7693286922654 61.91092046585016 L 1022.8630208635632 61.80281617901732 L 1022.9590997082953 61.69514083024725 L 1023.0575556186573 61.587905186985104 L 1023.1583787491401 61.48111997270585 L 1023.2615590175149 61.37479586584192 L 1023.3670861058405 61.2689434987154 L 1023.4749494614963 61.16357345647479 L 1023.5851382982365 61.05869627603652 L 1023.6976415972694 60.954322445031224 L 1023.8124481083586 60.85046240075503 L 1023.9295463509488 60.74712652912581 L 1024.0489246153134 60.644325163644616 L 1024.1705709637254 60.54206858436233 L 1024.2944732316512 60.440367016851674 L 1024.4206190289672 60.339230631184634 L 1024.5489957411992 60.2386695409155 L 1024.6795905307824 60.13869380206951 L 1024.8123903383473 60.03931341213722 L 1024.9473818840233 59.94053830907482 L 1025.0845516687684 59.84237837031029 L 1025.2238859757188 59.74484341175572 L 1025.3653708715594 59.64794318682568 L 1025.508992207919 59.55168738546191 L 1025.6547356227832 59.45608563316434 L 1025.8025865419322 59.361147490028536 L 1025.9525301803974 59.266882449789684 L 1026.1045515439396 59.173299938873264 L 1026.2586354305495 59.08040931545237 L 1026.4147664319667 58.988219868511955 L 1026.572928935221 58.89674081691987 L 1026.7331071241938 58.805981308505054 L 1026.8952849812001 58.715950419142715 L 1027.0594462885892 58.62665715184676 L 1027.225574630367 58.5381104358695 L 1027.393653393838 58.450319125808754 L 1027.5636657712655 58.36329200072237 L 1027.7355947615538 58.277037763250334 L 1027.909423171947 58.19156503874451 L 1028.085133619749 58.10688237440612 L 1028.2627085340616 58.022998238431036 L 1028.442130157541 57.93992101916295 L 1028.6233805481745 57.85765902425456 L 1028.8064415810743 57.776220479836795 L 1028.9912949502893 57.695613529696246 L 1029.1779221706367 57.61584623446075 L 1029.3663045795502 57.53692657079335 L 1029.5564233389457 57.45886243059466 L 1029.7482594371058 57.38166162021363 L 1029.9417936905807 57.30533185966698 L 1030.137006746106 57.229880781867145 L 1030.3338790825387 57.155315931859036 L 1030.5323910128097 57.08164476606552 L 1030.7325226858914 57.008874651541774 L 1030.9342540887828 56.93701286523862 L 1031.137565048512 56.866066593274795 L 1031.3424352341524 56.79604293021838 L 1031.5488441588561 56.726948878377314 L 1031.7567711819029 56.658791347099225 L 1031.9661955107636 56.591577152080426 L 1032.1770962031796 56.525313014684414 L 1032.3894521692578 56.4600055612697 L 1032.6032421735783 56.39566132252722 L 1032.8184448373188 56.332286732827214 L 1033.0350386403925 56.26988812957585 L 1033.2530019235994 56.20847175258143 L 1033.472312890793 56.14804374343051 L 1033.6929496110592 56.08861014487363 L 1033.9148900209098 56.03017690022111 L 1034.1381119264886 55.972749852748734 L 1034.3625930057915 55.91633474511339 L 1034.5883108108974 55.86093721877882 L 1034.815242770214 55.80656281345151 L 1035.043366190734 55.753216966526665 L 1035.2726582603061 55.70090501254454 L 1035.5030960499141 55.649632182656916 L 1035.734656515971 55.59940360410408 L 1035.9673165026234 55.550224299702016 L 1036.2010527440664 55.50209918734018 L 1036.4358418668705 55.45503307948971 L 1036.6716603923192 55.40903068272217 L 1036.9084847387567 55.3640965972389 L 1037.1462912239451 55.320235316411 L 1037.3850560674348 55.27745122633 L 1037.6247553929397 55.23574860536927 L 1037.8653652307275 55.19513162375613 L 1038.106861520015 55.15560434315492 L 1038.349220111374 55.11717071626074 L 1038.5924167691478 55.07983458640426 L 1038.836427173873 55.04359968716735 L 1039.0812269247126 55.00846964200974 L 1039.3267915418955 54.974447963906684 L 1039.5730964691647 54.941538054997615 L 1039.8201170762327 54.90974320624601 L 1040.0678286612444 54.87906659711026 L 1040.316206453248 54.849511295225696 L 1040.5652256146711 54.82108025609789 L 1040.8148612438054 54.79377632280706 L 1041.0650883772955 54.76760222572378 L 1041.3158819926368 54.742560582235946 L 1041.567217010677 54.71865389648704 L 1041.8190682981235 54.695884559125716 L 1042.0714106700575 54.674254847066734 L 1042.324218892452 54.65376692326327 L 1042.5774676846956 54.63442283649064 L 1042.83113172212 54.616224521141405 L 1043.085185638533 54.599173797031916 L 1043.3396040287544 54.583272369220396 L 1043.5943614511573 54.56852182783636 L 1043.8494324302117 54.55492364792166 L 1044.1047914590324 54.54247918928296 L 1044.3604130019294 54.53118969635575 L 1044.616271496961 54.52105629807991 L 1044.8723413584914 54.51208000778683 L 1045.1285969797475 54.504261723098054 L 1045.385012735381 54.497602225835536 L 1045.6415629840299 54.49210218194346 L 1045.8982220708829 54.487762141421626 L 1046.1549643302455 54.484582538270466 L 1046.4117640881057 54.482563690447655 L 1046.6685956647013 54.481705799836284 L 1046.9254333770893 54.4820089522247 L 1047.182251541712 54.48347311729792 L 1047.4390244769672 54.486098148640664 L 1047.6957265057754 54.48988378375197 L 1047.9523319581472 54.49482964407149 L 1048.2088151737516 54.50093523501731 L 1048.465150504481 54.50819994603543 L 1048.7213123170154 54.5166230506608 L 1048.9772749953872 54.52620370658997 L 1049.233012943542 54.53694095576534 L 1049.488500587898 54.54883372447093 L 1049.7437123799036 54.56188082343979 L 1049.9986227985924 54.5760809479729 L 1050.2532063531348 54.591432678069616 L 1050.5074375853878 54.607934478569746 L 1050.7612910724397 54.62558469930698 L 1051.0147414291534 54.644381575273954 L 1051.2677633107048 54.66432322679874 L 1051.520331415116 54.685407659732796 L 1051.7724204857875 54.70763276565041 L 1052.0240053140221 54.7309963220595 L 1052.275060741547 54.75549599262389 L 1052.525561663028 54.78112932739696 L 1052.775483028582 54.80789376306658 L 1053.0247998462808 54.83578662321149 L 1053.2734871846503 54.86480511856891 L 1053.5215201751641 54.89494634731351 L 1053.7688740147296 54.9262072953475 L 1054.015523968169 54.95858483660216 L 1054.2614453706926 54.99207573335032 L 1054.506613630365 55.02667663653023 L 1054.7510042305648 55.0623840860804 L 1054.9945927324352 55.09919451128564 L 1055.2373547773293 55.13710423113409 L 1055.479266089245 55.17610945468536 L 1055.720302477252 55.2162062814496 L 1055.9604398379133 55.25739070177756 L 1056.1996541576925 55.29965859726151 L 1056.437921515357 55.34300574114714 L 1056.6752180843696 55.38742779875617 L 1056.911520135271 55.43292032791987 L 1057.1468040380532 55.47947877942322 L 1057.3810462645222 55.527098497459875 L 1057.61422339065 55.57577472009772 L 1057.8463120989188 55.62550257975505 L 1058.077289180651 55.67627710368733 L 1058.3071315383309 55.728093214484495 L 1058.5358161879142 55.78094573057864 L 1058.7633202611264 55.83482936676219 L 1058.9896210077502 55.88973873471644 L 1059.2146957978991 55.945668343550345 L 1059.438522124282 56.002612600349636 L 1059.6610776044524 56.06056581073608 L 1059.882339983048 56.11952217943694 L 1060.1022871340153 56.179475810864474 L 1060.3208970628227 56.24042070970549 L 1060.5381479086589 56.30235078152091 L 1060.754017946621 56.36525983335514 L 1060.9684855898845 56.42914157435544 L 1061.1815293918642 56.49398961640093 L 1061.3931280483573 56.55979747474145 L 1061.6032603996746 56.62655856864601 L 1061.811905432756 56.69426622206085 L 1062.019042283272 56.76291366427705 L 1062.2246502377104 56.83249403060759 L 1062.4287087354467 56.903000363073836 L 1062.6311973708014 56.97442561110128 L 1062.8320958950799 57.04676263222465 L 1063.0313842185967 57.120004192802114 L 1063.229042412686 57.19414296873864 L 1063.4250507116928 57.26917154621842 L 1063.6193895149509 57.34508242244624 L 1063.8120393887414 57.421868006397716 L 1064.002981068238 57.49952061957846 L 1064.1921954594313 57.57803249679186 L 1064.3796636410402 57.657395786915615 L 1064.5653668664029 57.73760255368685 L 1064.7492865653512 57.81864477649573 L 1064.931404346069 57.9005143511875 L 1065.1117019969295 57.983203090872934 L 1065.290161488318 58.06670272674695 L 1065.4667649744345 58.15100490891555 L 1065.6414947950768 58.23610120723078 L 1065.814333477409 58.32198311213371 L 1065.9852637377069 58.40864203550541 L 1066.1542684830865 58.49606931152578 L 1066.3213308132144 58.58425619754006 L 1066.486434021997 58.67319387493313 L 1066.6495615992503 58.76287345001139 L 1066.8106972323533 58.853285954892044 L 1066.9698248078766 58.944422348399954 L 1067.1269284131954 59.03627351697172 L 1067.2819923380798 59.12883027556701 L 1067.4350010762669 59.222083368587114 L 1067.58593932701 59.31602347080043 L 1067.73479199661 59.41064118827504 L 1067.8815441999243 59.50592705931801 L 1068.0261812618544 59.60187155542167 L 1068.1686887188146 59.698465082216345 L 1068.3090523201784 59.79569798042986 L 1068.4472580297022 59.89356052685341 L 1068.5832920269306 59.99204293531392 L 1068.717140708577 60.0911353576526 L 1068.8487906898847 60.1908278847098 L 1068.9782288059655 60.29111054731588 L 1069.1054421131155 60.39197331728817 L 1069.2304178901102 60.4934061084337 L 1069.3531436394758 60.5953987775579 L 1069.4736070887398 60.69794112547884 L 1069.5917961916573 60.80102289804719 L 1069.707699129417 60.90463378717158 L 1069.8213043118217 61.00876343184945 L 1069.9326003784472 61.113401419203115 L 1070.0415761997804 61.218537285521016 L 1070.1482208783293 61.32416051730415 L 1070.2525237497155 61.43026055231736 L 1070.3544743837383 61.53682678064554 L 1070.4540625854195 61.643848545754686 L 1070.5512783960219 61.75131514555746 L 1070.6461120940453 61.85921583348345 L 1070.7385541961992 61.96753981955375 L 1070.82859545835 62.07627627146005 L 1070.916226876447 62.18541431564777 L 1071.0014396874212 62.29494303840343 L 1071.0842253700625 62.404851486946036 L 1071.1645756458715 62.515128670522316 L 1071.242482479888 62.62576356150581 L 1071.317938081493 62.736745096499625 L 1071.3909349051894 62.84806217744274 L 1071.4614656513559 62.959703672719826 L 1071.5295232669764 63.07165841827438 L 1071.595100946346 63.18391521872516 L 1071.6581921317518 63.29646284848565 L 1071.7187905141275 63.409290052886675 L 1071.7768900336853 63.52238554930181 L 1071.8324848805219 63.63573802827567 L 1071.8855694951988 63.7493361546548 L 1071.9361385692987 63.86316856872124 L 1071.9841870459566 63.97722388732845 L 1072.0297101203646 64.09149070503959 L 1072.0727032402535 64.20595759526815 L 1072.1131621063466 64.32061311142046 L 1072.1510826727917 64.43544578804045 L 1072.1864611475633 64.55044414195618 L 1072.2192939928434 64.66559667342807 L 1072.2495779253752 64.78089186729893 L 1072.2773099167903 64.89631819414548 L 1072.3024871939126 65.0118641114312 L 1072.3251072390358 65.12751806466063 L 1072.345167790174 65.24326848853487 L 1072.3626668412887 65.35910380810796 L 1072.3776026424894 65.47501243994449 L 1072.3899737002087 65.59098279327785 L 1072.3997787773508 65.70700327116936 L 1072.4070168934163 65.8230622716679 L 1072.4116873245998 65.93914818897015 L 1072.4137896038617 66.05524941458111 M 1072.4139199008453 103.0349230918 L 1072.4126357132566 103.15102675555636 L 1072.4087832789085 103.2671188090431 L 1072.4023629830413 103.3831876431516 L 1072.3933754676789 103.4992216510952 L 1072.3818216315656 103.61520922956979 L 1072.3677026300752 103.73113877991415 L 1072.3510198750964 103.8469987092699 L 1072.3317750348906 103.9627774317406 L 1072.3099700339255 104.07846336955055 L 1072.2856070526836 104.19404495420231 L 1072.2586885274422 104.30951062763378 L 1072.2292171500317 104.42484884337381 L 1072.1971958675654 104.54004806769696 L 1072.1626278821443 104.65509678077679 L 1072.1255166505387 104.76998347783784 L 1072.0858658838406 104.88469667030618 L 1072.0436795470937 104.99922488695815 L 1071.9989618588963 105.1135566750675 L 1071.9517172909802 105.22768060155073 L 1071.901950567763 105.34158525411026 L 1071.849666665875 105.45525924237577 L 1071.7948708136632 105.56869119904317 L 1071.7375684906672 105.68186978101132 L 1071.6777654270713 105.79478367051632 L 1071.6154676031322 105.90742157626333 L 1071.5506812485803 106.01977223455563 L 1071.483412841997 106.13182441042103 L 1071.4136691101673 106.2435668987353 L 1071.3414570274058 106.35498852534273 L 1071.2667838148607 106.46607814817354 L 1071.1896569397911 106.57682465835798 L 1071.1100841148202 106.68721698133734 L 1071.0280732971644 106.79724407797133 L 1070.9436326878367 106.90689494564195 L 1070.856770730828 107.01615861935382 L 1070.7674961122614 107.12502417283062 L 1070.6758177595248 107.23348071960771 L 1070.5817448403764 107.34151741412083 L 1070.4852867620302 107.44912345279052 L 1070.3864531702136 107.5562880751026 L 1070.2852539482033 107.66300056468414 L 1070.1816992158372 107.76925025037511 L 1070.0757993285022 107.87502650729549 L 1069.9675648760988 107.98031875790771 L 1069.8570066819823 108.08511647307448 L 1069.7441358018796 108.1894091731116 L 1069.6289635227847 108.29318642883598 L 1069.51150136183 108.39643786260854 L 1069.391761065133 108.49915314937192 L 1069.2697546066242 108.60132201768305 L 1069.1454941868474 108.70293425074024 L 1069.0189922317413 108.80397968740488 L 1068.8902613913956 108.90444822321749 L 1068.7593145387875 109.0043298114082 L 1068.626164768493 109.10361446390144 L 1068.490825395378 109.20229225231469 L 1068.3533099532672 109.30035330895136 L 1068.21363219359 109.39778782778748 L 1068.0718060840063 109.49458606545237 L 1067.9278458070087 109.59073834220294 L 1067.781765758505 109.68623504289161 L 1067.633580546378 109.78106661792793 L 1067.4833049890258 109.87522358423341 L 1067.3309541138788 109.96869652618986 L 1067.1765431558974 110.061476096581 L 1067.0200875560492 110.15355301752712 L 1066.861602959763 110.24491808141282 L 1066.7011052153673 110.33556215180788 L 1066.538610372502 110.42547616438078 L 1066.3741346805166 110.5146511278052 L 1066.2076945868428 110.60307812465909 L 1066.0393067353511 110.69074831231649 L 1065.868987964687 110.77765292383165 L 1065.6967553065851 110.86378326881588 L 1065.522625984168 110.94913073430642 L 1065.3466174102223 111.03368678562788 L 1065.1687471854593 111.11744296724555 L 1064.9890330967532 111.2003909036111 L 1064.8074931153628 111.2825223 L 1064.6241453951352 111.36382894334106 L 1064.4390082706893 111.44430270303769 L 1064.2521002555839 111.52393553178099 L 1064.063440040464 111.60271946635444 L 1063.8730464911946 111.68064662843025 L 1063.6809386469713 111.75770922535715 L 1063.487135718419 111.83389955093965 L 1063.2916570856687 111.9092099862087 L 1063.094522296421 111.9836330001835 L 1062.8957510639902 112.05716115062472 L 1062.6953632653344 112.12978708477856 L 1062.4933789390661 112.20150354011211 L 1062.2898182834497 112.27230334503965 L 1062.0847016543812 112.34217941963963 L 1061.8780495633525 112.41112477636287 L 1061.6698826754007 112.47913252073111 L 1061.4602218070406 112.54619585202661 L 1061.249087924185 112.61230806397214 L 1061.0365021400457 112.67746254540155 L 1060.8224857130242 112.74165278092104 L 1060.6070600445848 112.80487235156053 L 1060.3902466771149 112.86711493541566 L 1060.1720672917704 112.92837430827987 L 1059.9525437063082 112.98864434426694 L 1059.7316978729039 113.04791901642352 L 1059.5095518759567 113.10619239733178 L 1059.2861279298813 113.16345865970217 L 1059.061448376886 113.21971207695618 L 1058.8355356847387 113.27494702379899 L 1058.6084124445208 113.32915797678191 L 1058.3801013683667 113.38233951485485 L 1058.1506252871939 113.43448631990829 L 1057.9200071484192 113.48559317730519 L 1057.6882700136646 113.53565497640241 L 1057.45543705645 113.58466671106174 L 1057.2215315598773 113.63262348015058 L 1056.9865769143014 113.67952048803197 L 1056.7505966149909 113.7253530450442 L 1056.513614259779 113.77011656796977 L 1056.2756535467038 113.81380658049369 L 1056.0367382716383 113.85641871365111 L 1055.796892325911 113.89794870626423 L 1055.5561396939165 113.93839240536839 L 1055.3145044507175 113.9777457666274 L 1055.072010759637 114.0160048547379 L 1054.8286828698417 114.05316584382298 L 1054.5845451139182 114.0892250178147 L 1054.3396219054382 114.12417877082571 L 1054.093937736519 114.15802360750982 L 1053.8475171753723 114.19075614341159 L 1053.600384863849 114.2223731053047 L 1053.3525655149745 114.25287133151929 L 1053.104083910477 114.28224777225817 L 1052.8549648983098 114.31049948990176 L 1052.6052333901666 114.3376236593018 L 1052.35491435899 114.36361756806399 L 1052.104032836475 114.38847861681909 L 1051.852613910564 114.41220431948295 L 1051.600682722941 114.43479230350509 L 1051.348264466514 114.45624031010593 L 1051.0953843828986 114.47654619450265 L 1050.8420677598924 114.49570792612376 L 1050.5883399289467 114.51372358881206 L 1050.3342262626331 114.5305913810163 L 1050.0797521721065 114.5463096159713 L 1049.824943104564 114.56087672186668 L 1049.5698245406995 114.57429124200398 L 1049.3144219921576 114.58655183494237 L 1049.0587609989796 114.59765727463277 L 1048.8028671270522 114.60760645054046 L 1048.5467659655492 114.61639836775615 L 1048.2904831243732 114.62403214709545 L 1048.0340442315949 114.63050702518677 L 1047.7774749308899 114.6358223545477 L 1047.5208008789746 114.63997760364975 L 1047.2640477430398 114.64297235697146 L 1047.0072411981857 114.64480631504 L 1046.7504069248525 114.64547929446107 L 1046.4935706062533 114.64499122793733 L 1046.2367579258066 114.64334216427498 L 1045.9799945645657 114.64053226837903 L 1045.723306198653 114.63656182123674 L 1045.4667184966916 114.63143121988952 L 1045.2102571172372 114.62514097739319 L 1044.9539477062146 114.6176917227668 L 1044.697815894351 114.60908420092959 L 1044.4418872946142 114.59931927262656 L 1044.1861874996507 114.58839791434241 L 1043.9307420792272 114.57632121820387 L 1043.675576577673 114.5630903918705 L 1043.4207165113253 114.54870675841389 L 1043.1661873659784 114.53317175618541 L 1042.9120145943348 114.51648693867233 L 1042.6582236134598 114.4986539743425 L 1042.40483980224 114.47967464647749 L 1042.1518884988457 114.45955085299428 L 1041.899394998196 114.43828460625544 L 1041.6473845494306 114.41587803286792 L 1041.3958823533846 114.3923333734704 L 1041.144913560068 114.36765298250918 L 1040.8945032661507 114.3418393280028 L 1040.6446765124538 114.3148949912952 L 1040.395458281444 114.2868226667976 L 1040.1468734947373 114.25762516171906 L 1039.8989470106048 114.22730539578573 L 1039.6517036214884 114.19586640094897 L 1039.405168051521 114.16331132108203 L 1039.1593649540544 114.12964341166581 L 1038.914318909193 114.09486603946317 L 1038.6700544213375 114.05898268218235 L 1038.426595916733 114.02199692812917 L 1038.183967741027 113.98391247584823 L 1037.9421941568348 113.944733133753 L 1037.7012993413139 113.90446281974506 L 1037.4613073837443 113.86310556082225 L 1037.2222422831223 113.82066549267599 L 1036.9841279457587 113.77714685927774 L 1036.7469881828886 113.73255401245454 L 1036.510846708291 113.68689141145396 L 1036.2757271359162 113.64016362249802 L 1036.0416529775255 113.59237531832667 L 1035.80864764034 113.54353127773052 L 1035.5767344246992 113.49363638507293 L 1035.3459365217311 113.44269562980158 L 1035.116277011034 113.39071410594954 L 1034.8877788583675 113.33769701162588 L 1034.6604649133562 113.28364964849587 L 1034.4343579072056 113.22857742125075 L 1034.2094804504275 113.17248583706737 L 1033.9858550305803 113.1153805050574 L 1033.76350401002 113.05726713570647 L 1033.5424496236626 112.99815154030306 L 1033.3227139767632 112.93803963035747 L 1033.104319042703 112.8769374170106 L 1032.887286660794 112.81485101043285 L 1032.6716385340926 112.75178661921315 L 1032.4573962272325 112.68775054973807 L 1032.2445811642656 112.6227492055612 L 1032.0332146265207 112.55678908676278 L 1031.8233177504758 112.48987678929971 L 1031.614911525643 112.42201900434601 L 1031.408016792472 112.3532225176236 L 1031.2026542402627 112.28349420872384 L 1030.9988444051 112.2128410504195 L 1030.7966076677972 112.14127010796754 L 1030.5959642518596 112.06878853840256 L 1030.3969342214616 111.99540358982111 L 1030.19953747944 111.9211226006569 L 1030.0037937653053 111.84595299894696 L 1029.809722653265 111.76990230158879 L 1029.6173435502692 111.69297811358877 L 1029.4266756940674 111.6151881273016 L 1029.2377381512865 111.53654012166106 L 1029.0505498155235 111.45704196140221 L 1028.8651294054557 111.3767015962748 L 1028.6814954629697 111.2955270602484 L 1028.4996663513068 111.21352647070897 L 1028.3196602532266 111.13070802764713 L 1028.141495169189 111.04708001283818 L 1027.9651889155539 110.96265078901389 L 1027.7907591227995 110.8774287990263 L 1027.6182232337599 110.79142256500339 L 1027.4475985018803 110.70464068749688 L 1027.2789019894915 110.61709184462221 L 1027.1121505661044 110.52878479119072 L 1026.9473609067222 110.43972835783416 L 1026.7845494901737 110.34993145012163 L 1026.6237325974646 110.2594030476691 L 1026.4649263101503 110.16815220324135 L 1026.3081465087273 110.0761880418468 L 1026.153408871045 109.98351975982494 L 1026.0007288707382 109.89015662392677 L 1025.8501217756796 109.79610797038806 L 1025.7016026464535 109.70138320399579 L 1025.5551863348487 109.60599179714767 L 1025.4108874823746 109.50994328890488 L 1025.268720518796 109.4132472840382 L 1025.1286996606912 109.31591345206758 L 1024.9908389100287 109.21795152629505 L 1024.8551520527692 109.11937130283158 L 1024.721652657485 109.02018263961737 L 1024.5903540740048 108.92039545543608 L 1024.4612694320772 108.82001972892296 L 1024.3344116400588 108.71906549756703 L 1024.2097933836233 108.6175428567073 L 1024.0874271244923 108.51546195852325 L 1023.9673250991898 108.41283301101961 L 1023.8494993178183 108.30966627700563 L 1023.7339615628578 108.20597207306875 L 1023.6207233879873 108.10176076854292 L 1023.5097961169301 107.99704278447177 L 1023.4011908423208 107.89182859256644 L 1023.2949184245965 107.78612871415844 L 1023.1909894909102 107.67995371914753 L 1023.0894144340688 107.57331422494474 L 1022.9902034114933 107.4662208954106 L 1022.8933663442032 107.35868443978885 L 1022.7989129158246 107.2507156116354 L 1022.7068525716218 107.14232520774314 L 1022.6171945175522 107.0335240670621 L 1022.5299477193466 106.92432306961568 L 1022.4451209016123 106.81473313541265 L 1022.3627225469601 106.70476522335508 L 1022.2827608951569 106.59443033014256 L 1022.2052439423014 106.48373948917244 L 1022.1301794400241 106.37270376943658 L 1022.0575748947127 106.26133427441445 L 1021.9874375667614 106.14964214096271 L 1021.9197744698442 106.03763853820165 L 1021.8545923702148 105.92533466639821 L 1021.7918977860286 105.81274175584596 L 1021.7316969866919 105.69987106574217 L 1021.6739959922343 105.58673388306175 L 1021.6188005727073 105.47334152142872 L 1021.5661162476068 105.35970531998473 L 1021.5159482853215 105.24583664225523 L 1021.4683017026057 105.1317468750131 L 1021.423181264078 105.01744742714001 L 1021.3805914817448 104.90294972848548 L 1021.3405366145486 104.78826522872397 L 1021.3030206679429 104.67340539620987 L 1021.268047393491 104.55838171683074 L 1021.2356202884912 104.44320569285864 L 1021.205742595627 104.3278888418 L 1021.178417302643 104.21244269524384 L 1021.1536471420454 104.09687879770858 L 1021.1314345908298 103.9812087054877 L 1021.1117818702328 103.86544398549403 L 1021.0946909455101 103.74959621410306 L 1021.0801635257399 103.63367697599544 L 1021.0682010636519 103.51769786299836 L 1021.0588047554826 103.40167047292647 L 1021.0519755408549 103.28560640842208 L 1021.0477141026845 103.16951727579495 L 1021.0460208671117 103.05341468386156" stroke-miterlimit="10" stroke-width="2.990598758" stroke-dasharray=""/></g><g><g/><text fill="black" stroke="none" font-family="sans-serif" font-size="11pt" font-style="normal" font-weight="normal" text-decoration="normal" x="999.0563777418647" y="133.521438666" text-anchor="start" dominant-baseline="alphabetic" xml:space="preserve">LCA Database</text></g></g><g><g><g><rect fill="white" stroke="none" x="269.5481874986654" y="173.982480686" width="334.4327396223438" height="22.86928462"/></g><text fill="black" stroke="none" font-family="sans-serif" font-size="11pt" font-style="normal" font-weight="normal" text-decoration="normal" x="272.1869511086654" y="189.81506234600002" text-anchor="start" dominant-baseline="alphabetic" xml:space="preserve">Formula / Recipe of Product / Process (ZKP Code)</text></g><g><path fill="none" stroke="black" paint-order="fill stroke markers" d=" M 148.32766700189453 196.851765306 L 710.7175673584467 196.851765306" stroke-miterlimit="10" stroke-width="1.4659797833333332" stroke-dasharray=""/><g transform="translate(725.20144761778,196.851765306) translate(-725.20144761778,-196.851765306)"><path fill="black" stroke="none" paint-order="stroke fill markers" d=" M 710.5416497844467 189.52186638933333 L 725.20144761778 196.851765306 L 710.5416497844467 204.18166422266668 Z"/></g></g><path fill="white" stroke="black" paint-order="fill stroke markers" d=" M 627.6310011737957 223.239401406 L 806.9393124017645 223.239401406 L 822.7718940617644 239.071983066 L 822.7718940617644 263.700443426 L 627.6310011737957 263.700443426 L 627.6310011737957 223.239401406 M 806.9393124017645 223.239401406 L 806.9393124017645 239.071983066 L 822.7718940617644 239.071983066" stroke-miterlimit="10" stroke-width="1.4659797833333332" stroke-dasharray=""/><g><text fill="black" stroke="none" font-family="sans-serif" font-size="11pt" font-style="normal" font-weight="normal" text-decoration="normal" x="652.2594615337956" y="247.86786176600003" text-anchor="start" dominant-baseline="alphabetic" xml:space="preserve">Audit and initial Setup </text></g><g><g><rect fill="white" stroke="none" x="746.0183605411133" y="290.088079526" width="160.09492529128906" height="22.86928462"/></g><text fill="black" stroke="none" font-family="sans-serif" font-size="11pt" font-style="normal" font-weight="normal" text-decoration="normal" x="748.6571241511133" y="305.920661186" text-anchor="start" dominant-baseline="alphabetic" xml:space="preserve">Deploy Verifier Contract</text></g><g><path fill="none" stroke="black" paint-order="fill stroke markers" d=" M 725.20144761778 312.957364146 L 912.4463184964025 312.957364146" stroke-miterlimit="10" stroke-width="1.4659797833333332" stroke-dasharray=""/><g transform="translate(926.9301987557358,312.957364146) translate(-926.9301987557358,-312.957364146)"><path fill="black" stroke="none" paint-order="stroke fill markers" d=" M 912.2704009224025 305.6274652293333 L 926.9301987557358 312.957364146 L 912.2704009224025 320.2872630626666 Z"/></g></g><g><g><rect fill="white" stroke="none" x="337.9769442125326" y="339.345000246" width="197.57522619460937" height="22.86928462"/></g><text fill="black" stroke="none" font-family="sans-serif" font-size="11pt" font-style="normal" font-weight="normal" text-decoration="normal" x="340.6157078225326" y="355.177581906" text-anchor="start" dominant-baseline="alphabetic" xml:space="preserve"> Proving Key &amp; Contract Infos</text></g><g><path fill="none" stroke="black" paint-order="fill stroke markers" d=" M 725.20144761778 362.21428486599996 L 162.81154726122787 362.21428486599996" stroke-miterlimit="10" stroke-width="1.4659797833333332" stroke-dasharray=""/><g transform="translate(148.32766700189453,362.21428486599996) translate(-148.32766700189453,-362.21428486599996)"><path fill="black" stroke="none" paint-order="stroke fill markers" d=" M 162.98746483522785 354.8843859493333 L 148.32766700189453 362.21428486599996 L 162.98746483522785 369.5441837826666 Z"/></g></g><g><g><rect fill="white" stroke="none" x="460.4520281405417" y="388.60192096599997" width="274.1535648176563" height="22.86928462"/></g><text fill="black" stroke="none" font-family="sans-serif" font-size="11pt" font-style="normal" font-weight="normal" text-decoration="normal" x="463.0907917505417" y="404.434502626" text-anchor="start" dominant-baseline="alphabetic" xml:space="preserve">Request Emission Factors for Calculation</text></g><g><path fill="none" stroke="black" paint-order="fill stroke markers" d=" M 148.32766700189453 411.47120558599994 L 1032.2460738375119 411.47120558599994" stroke-miterlimit="10" stroke-width="1.4659797833333332" stroke-dasharray=""/><g transform="translate(1046.7299540968452,411.47120558599994) translate(-1046.7299540968452,-411.47120558599994)"><path fill="black" stroke="none" paint-order="stroke fill markers" d=" M 1032.0701562635118 404.1413066693333 L 1046.7299540968452 411.47120558599994 L 1032.0701562635118 418.8011045026666 Z"/></g></g><g><g><rect fill="white" stroke="none" x="489.78988061856904" y="437.85884168599995" width="215.47785986160156" height="22.86928462"/></g><text fill="black" stroke="none" font-family="sans-serif" font-size="11pt" font-style="normal" font-weight="normal" text-decoration="normal" x="492.42864422856906" y="453.69142334599997" text-anchor="start" dominant-baseline="alphabetic" xml:space="preserve">Emission Factors for Calculation</text></g><g><path fill="none" stroke="black" paint-order="fill stroke markers" d=" M 1046.7299540968452 460.7281263059999 L 162.81154726122787 460.7281263059999" stroke-miterlimit="10" stroke-width="1.4659797833333332" stroke-dasharray="7.0367029599999995"/><g transform="translate(148.32766700189453,460.7281263059999) translate(-148.32766700189453,-460.7281263059999)"><path fill="black" stroke="none" paint-order="stroke fill markers" d=" M 162.98746483522785 453.3982273893333 L 148.32766700189453 460.7281263059999 L 162.98746483522785 468.0580252226666 Z"/></g></g><path fill="white" stroke="black" paint-order="fill stroke markers" d=" M 8.7958787 487.1157624059999 L 272.02687364378903 487.1157624059999 L 287.85945530378905 502.9483440659999 L 287.85945530378905 527.5768044259999 L 8.7958787 527.5768044259999 L 8.7958787 487.1157624059999 M 272.02687364378903 487.1157624059999 L 272.02687364378903 502.9483440659999 L 287.85945530378905 502.9483440659999" stroke-miterlimit="10" stroke-width="1.4659797833333332" stroke-dasharray=""/><g><text fill="black" stroke="none" font-family="sans-serif" font-size="11pt" font-style="normal" font-weight="normal" text-decoration="normal" x="33.424339059999994" y="511.74422276599984" text-anchor="start" dominant-baseline="alphabetic" xml:space="preserve">Execute Calculation and ZKP Code</text></g><g><g><rect fill="white" stroke="none" x="169.14457992522784" y="553.9644405259999" width="152.78642309402343" height="22.86928462"/></g><text fill="black" stroke="none" font-family="sans-serif" font-size="11pt" font-style="normal" font-weight="normal" text-decoration="normal" x="171.78334353522786" y="569.7970221859998" text-anchor="start" dominant-baseline="alphabetic" xml:space="preserve">Send Proof and Result</text></g><g><path fill="none" stroke="black" paint-order="fill stroke markers" d=" M 148.32766700189453 576.8337251459999 L 328.26403568325134 576.8337251459999" stroke-miterlimit="10" stroke-width="1.4659797833333332" stroke-dasharray=""/><g transform="translate(342.74791594258465,576.8337251459999) translate(-342.74791594258465,-576.8337251459999)"><path fill="black" stroke="none" paint-order="stroke fill markers" d=" M 328.0881181092513 569.5038262293332 L 342.74791594258465 576.8337251459999 L 328.0881181092513 584.1636240626666 Z"/></g></g><g><g><rect fill="white" stroke="none" x="556.4236595228516" y="603.2213612459999" width="156.83079565261718" height="22.86928462"/></g><text fill="black" stroke="none" font-family="sans-serif" font-size="11pt" font-style="normal" font-weight="normal" text-decoration="normal" x="559.0624231328516" y="619.0539429059999" text-anchor="start" dominant-baseline="alphabetic" xml:space="preserve">Verify Result with Proof</text></g><g><path fill="none" stroke="black" paint-order="fill stroke markers" d=" M 342.74791594258465 626.0906458659999 L 912.4463184964025 626.0906458659999" stroke-miterlimit="10" stroke-width="1.4659797833333332" stroke-dasharray=""/><g transform="translate(926.9301987557358,626.0906458659999) translate(-926.9301987557358,-626.0906458659999)"><path fill="black" stroke="none" paint-order="stroke fill markers" d=" M 912.2704009224025 618.7607469493332 L 926.9301987557358 626.0906458659999 L 912.2704009224025 633.4205447826666 Z"/></g></g><g><g><rect fill="white" stroke="none" x="596.3413307264649" y="652.4782819659999" width="76.99545324539062" height="22.86928462"/></g><text fill="black" stroke="none" font-family="sans-serif" font-size="11pt" font-style="normal" font-weight="normal" text-decoration="normal" x="598.9800943364648" y="668.3108636259999" text-anchor="start" dominant-baseline="alphabetic" xml:space="preserve">Verification</text></g><g><path fill="none" stroke="black" paint-order="fill stroke markers" d=" M 926.9301987557358 675.347566586 L 357.231796201918 675.347566586" stroke-miterlimit="10" stroke-width="1.4659797833333332" stroke-dasharray="7.0367029599999995"/><g transform="translate(342.74791594258465,675.347566586) translate(-342.74791594258465,-675.347566586)"><path fill="black" stroke="none" paint-order="stroke fill markers" d=" M 357.407713775918 668.0176676693333 L 342.74791594258465 675.347566586 L 357.407713775918 682.6774655026667 Z"/></g></g><g><g><rect fill="white" stroke="none" x="366.75831196901044" y="701.735202686" width="334.4327396223438" height="22.86928462"/></g><text fill="black" stroke="none" font-family="sans-serif" font-size="11pt" font-style="normal" font-weight="normal" text-decoration="normal" x="369.39707557901045" y="717.5677843459999" text-anchor="start" dominant-baseline="alphabetic" xml:space="preserve">Formula / Recipe of Product / Process (ZKP Code)</text></g><g><path fill="none" stroke="black" paint-order="fill stroke markers" d=" M 342.74791594258465 724.604487306 L 710.7175673584467 724.604487306" stroke-miterlimit="10" stroke-width="1.4659797833333332" stroke-dasharray=""/><g transform="translate(725.20144761778,724.604487306) translate(-725.20144761778,-724.604487306)"><path fill="black" stroke="none" paint-order="stroke fill markers" d=" M 710.5416497844467 717.2745883893333 L 725.20144761778 724.604487306 L 710.5416497844467 731.9343862226667 Z"/></g></g><path fill="white" stroke="black" paint-order="fill stroke markers" d=" M 627.6310011737957 750.9921234059999 L 806.9393124017645 750.9921234059999 L 822.7718940617644 766.8247050659999 L 822.7718940617644 791.4531654259999 L 627.6310011737957 791.4531654259999 L 627.6310011737957 750.9921234059999 M 806.9393124017645 750.9921234059999 L 806.9393124017645 766.8247050659999 L 822.7718940617644 766.8247050659999" stroke-miterlimit="10" stroke-width="1.4659797833333332" stroke-dasharray=""/><g><text fill="black" stroke="none" font-family="sans-serif" font-size="11pt" font-style="normal" font-weight="normal" text-decoration="normal" x="652.2594615337956" y="775.620583766" text-anchor="start" dominant-baseline="alphabetic" xml:space="preserve">Audit and initial Setup </text></g><g><g><rect fill="white" stroke="none" x="746.0183605411133" y="817.840801526" width="160.09492529128906" height="22.86928462"/></g><text fill="black" stroke="none" font-family="sans-serif" font-size="11pt" font-style="normal" font-weight="normal" text-decoration="normal" x="748.6571241511133" y="833.6733831859999" text-anchor="start" dominant-baseline="alphabetic" xml:space="preserve">Deploy Verifier Contract</text></g><g><path fill="none" stroke="black" paint-order="fill stroke markers" d=" M 725.20144761778 840.710086146 L 912.4463184964025 840.710086146" stroke-miterlimit="10" stroke-width="1.4659797833333332" stroke-dasharray=""/><g transform="translate(926.9301987557358,840.710086146) translate(-926.9301987557358,-840.710086146)"><path fill="black" stroke="none" paint-order="stroke fill markers" d=" M 912.2704009224025 833.3801872293333 L 926.9301987557358 840.710086146 L 912.2704009224025 848.0399850626667 Z"/></g></g><g><g><rect fill="white" stroke="none" x="435.1870686828776" y="867.097722246" width="197.57522619460937" height="22.86928462"/></g><text fill="black" stroke="none" font-family="sans-serif" font-size="11pt" font-style="normal" font-weight="normal" text-decoration="normal" x="437.82583229287764" y="882.930303906" text-anchor="start" dominant-baseline="alphabetic" xml:space="preserve"> Proving Key &amp; Contract Infos</text></g><g><path fill="none" stroke="black" paint-order="fill stroke markers" d=" M 725.20144761778 889.967006866 L 357.231796201918 889.967006866" stroke-miterlimit="10" stroke-width="1.4659797833333332" stroke-dasharray=""/><g transform="translate(342.74791594258465,889.967006866) translate(-342.74791594258465,-889.967006866)"><path fill="black" stroke="none" paint-order="stroke fill markers" d=" M 357.407713775918 882.6371079493333 L 342.74791594258465 889.967006866 L 357.407713775918 897.2969057826667 Z"/></g></g><g><g><rect fill="white" stroke="none" x="557.6621526108869" y="916.354642966" width="274.1535648176563" height="22.86928462"/></g><text fill="black" stroke="none" font-family="sans-serif" font-size="11pt" font-style="normal" font-weight="normal" text-decoration="normal" x="560.3009162208868" y="932.187224626" text-anchor="start" dominant-baseline="alphabetic" xml:space="preserve">Request Emission Factors for Calculation</text></g><g><path fill="none" stroke="black" paint-order="fill stroke markers" d=" M 342.74791594258465 939.2239275860001 L 1032.2460738375119 939.2239275860001" stroke-miterlimit="10" stroke-width="1.4659797833333332" stroke-dasharray=""/><g transform="translate(1046.7299540968452,939.2239275860001) translate(-1046.7299540968452,-939.2239275860001)"><path fill="black" stroke="none" paint-order="stroke fill markers" d=" M 1032.0701562635118 931.8940286693334 L 1046.7299540968452 939.2239275860001 L 1032.0701562635118 946.5538265026668 Z"/></g></g><g><g><rect fill="white" stroke="none" x="587.0000050889142" y="965.6115636860001" width="215.47785986160156" height="22.86928462"/></g><text fill="black" stroke="none" font-family="sans-serif" font-size="11pt" font-style="normal" font-weight="normal" text-decoration="normal" x="589.6387686989142" y="981.444145346" text-anchor="start" dominant-baseline="alphabetic" xml:space="preserve">Emission Factors for Calculation</text></g><g><path fill="none" stroke="black" paint-order="fill stroke markers" d=" M 1046.7299540968452 988.4808483060001 L 357.231796201918 988.4808483060001" stroke-miterlimit="10" stroke-width="1.4659797833333332" stroke-dasharray="7.0367029599999995"/><g transform="translate(342.74791594258465,988.4808483060001) translate(-342.74791594258465,-988.4808483060001)"><path fill="black" stroke="none" paint-order="stroke fill markers" d=" M 357.407713775918 981.1509493893334 L 342.74791594258465 988.4808483060001 L 357.407713775918 995.8107472226668 Z"/></g></g><path fill="white" stroke="black" paint-order="fill stroke markers" d=" M 203.21612764069013 1014.868484406 L 466.44712258447913 1014.868484406 L 482.27970424447915 1030.701066066 L 482.27970424447915 1055.329526426 L 203.21612764069013 1055.329526426 L 203.21612764069013 1014.868484406 M 466.44712258447913 1014.868484406 L 466.44712258447913 1030.701066066 L 482.27970424447915 1030.701066066" stroke-miterlimit="10" stroke-width="1.4659797833333332" stroke-dasharray=""/><g><text fill="black" stroke="none" font-family="sans-serif" font-size="11pt" font-style="normal" font-weight="normal" text-decoration="normal" x="227.84458800069012" y="1039.4969447659998" text-anchor="start" dominant-baseline="alphabetic" xml:space="preserve">Execute Calculation and ZKP Code</text></g><g><g><rect fill="white" stroke="none" x="363.564828865918" y="1081.717162526" width="152.78642309402343" height="22.86928462"/></g><text fill="black" stroke="none" font-family="sans-serif" font-size="11pt" font-style="normal" font-weight="normal" text-decoration="normal" x="366.203592475918" y="1097.549744186" text-anchor="start" dominant-baseline="alphabetic" xml:space="preserve">Send Proof and Result</text></g><g><path fill="none" stroke="black" paint-order="fill stroke markers" d=" M 342.74791594258465 1104.586447146 L 522.6842846239415 1104.586447146" stroke-miterlimit="10" stroke-width="1.4659797833333332" stroke-dasharray=""/><g transform="translate(537.1681648832748,1104.586447146) translate(-537.1681648832748,-1104.586447146)"><path fill="black" stroke="none" paint-order="stroke fill markers" d=" M 522.5083670499415 1097.2565482293332 L 537.1681648832748 1104.586447146 L 522.5083670499415 1111.9163460626667 Z"/></g></g><g><g><rect fill="white" stroke="none" x="653.6337839931967" y="1130.974083246" width="156.83079565261718" height="22.86928462"/></g><text fill="black" stroke="none" font-family="sans-serif" font-size="11pt" font-style="normal" font-weight="normal" text-decoration="normal" x="656.2725476031967" y="1146.806664906" text-anchor="start" dominant-baseline="alphabetic" xml:space="preserve">Verify Result with Proof</text></g><g><path fill="none" stroke="black" paint-order="fill stroke markers" d=" M 537.1681648832748 1153.8433678659999 L 912.4463184964025 1153.8433678659999" stroke-miterlimit="10" stroke-width="1.4659797833333332" stroke-dasharray=""/><g transform="translate(926.9301987557358,1153.8433678659999) translate(-926.9301987557358,-1153.8433678659999)"><path fill="black" stroke="none" paint-order="stroke fill markers" d=" M 912.2704009224025 1146.5134689493332 L 926.9301987557358 1153.8433678659999 L 912.2704009224025 1161.1732667826666 Z"/></g></g><g><g><rect fill="white" stroke="none" x="693.55145519681" y="1180.231003966" width="76.99545324539062" height="22.86928462"/></g><text fill="black" stroke="none" font-family="sans-serif" font-size="11pt" font-style="normal" font-weight="normal" text-decoration="normal" x="696.19021880681" y="1196.0635856259998" text-anchor="start" dominant-baseline="alphabetic" xml:space="preserve">Verification</text></g><g><path fill="none" stroke="black" paint-order="fill stroke markers" d=" M 926.9301987557358 1203.1002885859998 L 551.6520451426081 1203.1002885859998" stroke-miterlimit="10" stroke-width="1.4659797833333332" stroke-dasharray="7.0367029599999995"/><g transform="translate(537.1681648832748,1203.1002885859998) translate(-537.1681648832748,-1203.1002885859998)"><path fill="black" stroke="none" paint-order="stroke fill markers" d=" M 551.8279627166081 1195.770389669333 L 537.1681648832748 1203.1002885859998 L 551.8279627166081 1210.4301875026665 Z"/></g></g></g><g/><g/><g/><g/><g/><g/></g></svg>